# xmcd
#
# Track frame offsets:
#	150
#	52461
#	71060
#	83314
#	98063
#	120067
#	137834
#	164402
#	180985
#	201506
#	228518
#	263177
#	277888
#	316402
#
# Disc length: 4371 seconds
# Revision: 0
# Processed by: cddbd v1.5.2PL0 Copyright (c) Steve Scherf et al.
# Submitted via: dBpowerAMP V12.0
#
DISCID=c011110e
DTITLE=Frysk Fanfare Orkest - Pilatus
DYEAR=2010
DGENRE=
TTITLE0=Pilatus, mountain of dragons
TTITLE1=First suite in Es 1
TTITLE2=First suite in Es 2
TTITLE3=First suite in Es 3
TTITLE4=Intermezzo uit:  Goyescas 
TTITLE5=Suspiros de Espana
TTITLE6=Latin America
TTITLE7=Adagio
TTITLE8=In the steppes of central Asia
TTITLE9=Wir setzen uns mit Tranen nieder
TTITLE10=Martha, ouverture
TTITLE11=Gymnopedie no.1
TTITLE12=Symphony no.12, deel 3 en 4
TTITLE13=Oranje fanfare
EXTD=
EXTT0=
EXTT1=
EXTT2=
EXTT3=
EXTT4=
EXTT5=
EXTT6=
EXTT7=
EXTT8=
EXTT9=
EXTT10=
EXTT11=
EXTT12=
EXTT13=
PLAYORDER=
